<svg xmlns="http://www.w3.org/2000/svg" fill="none" viewBox="0 0 24 24" id="Chartjs--Streamline-Svg-Logos" height="24" width="24">
  <desc>
    Chartjs Streamline Icon: https://streamlinehq.com
  </desc>
  <path fill="#36a2eb" d="M21.586825 12.081675c-3.2853 0.0645 -2.601 2.14425 -4.91635 2.6702 -2.35205 0.534325 -2.72335 -5.744425 -5.074825 -5.744425 -2.35175 0 -2.872725 6.099125 -5.817425 10.28625l-0.084 0.118525 6.3134 3.6444 9.5792 -5.53V12.081675Z" stroke-width="0.25"></path>
  <path fill="#ffce56" d="M21.5867 11.89235c-1.0998 -1.41145 -1.845775 -3.034125 -3.4507 -3.034125 -2.8401 0 -2.0928 4.63315 -5.231675 4.63315 -3.13915 0 -3.469175 -4.9836 -7.025325 -0.298875 -1.13315 1.492675 -2.045225 3.157075 -2.7617 4.732025L12.0075 23.056775l9.5792 -5.53V11.89235Z" stroke-width="0.25"></path>
  <path fill="#fe6184" d="M2.4279775 13.811575C3.50575 10.826925 3.9709 8.409675 6.028475 8.409675c3.138875 0 3.886025 8.818225 6.576925 7.9211 2.69045 -0.896675 2.3914 -5.6795 6.5769 -5.6795 0.79665 0 1.61005 0.488075 2.4045 1.277525v5.59785L12.0076 23.056625 2.4279775 17.52665V13.811575Z" opacity=".8" stroke-width="0.25"></path>
  <path fill="#e7e9ed" d="M12.000025 23.75 1.822755 17.87515V6.125L12.000025 0.25l10.17725 5.875v11.75L12.000025 23.75ZM3.018475 17.184825l8.98155 5.18485 8.98155 -5.18485V6.8153L12.000025 1.6304775 3.018475 6.8153v10.369525Z" stroke-width="0.25"></path>
</svg>